<mxfile host="app.diagrams.net" modified="2023-10-23T12:24:07.110Z" agent="Mozilla/5.0 (Windows NT 10.0; Win64; x64) AppleWebKit/537.36 (KHTML, like Gecko) Chrome/118.0.0.0 Safari/537.36" etag="3xcQIvR0AZ0HL7RV_X4K" version="22.0.6" type="device">
  <diagram name="Page-1" id="2c0d36ab-eaac-3732-788b-9136903baeff">
    <mxGraphModel dx="2220" dy="1115" grid="1" gridSize="10" guides="1" tooltips="1" connect="1" arrows="1" fold="1" page="1" pageScale="1.5" pageWidth="1169" pageHeight="827" background="none" math="0" shadow="0">
      <root>
        <mxCell id="0" />
        <mxCell id="1" parent="0" />
        <mxCell id="jPdAf53yLR4_MpdE2c-u-115" style="edgeStyle=orthogonalEdgeStyle;rounded=0;orthogonalLoop=1;jettySize=auto;html=1;exitX=0.5;exitY=1;exitDx=0;exitDy=0;entryX=0.5;entryY=0;entryDx=0;entryDy=0;strokeWidth=2;" parent="1" source="10" target="jPdAf53yLR4_MpdE2c-u-114" edge="1">
          <mxGeometry relative="1" as="geometry" />
        </mxCell>
        <mxCell id="10" value="&#xa;&#xa;Map" style="rounded=0;fillColor=#ffe6cc;strokeColor=#d79b00;fontStyle=1;fontFamily=Verdana;fontSize=20;" parent="1" vertex="1">
          <mxGeometry x="1475.5" y="369.39" width="250" height="121.75" as="geometry" />
        </mxCell>
        <mxCell id="61" value="" style="edgeStyle=elbowEdgeStyle;elbow=vertical;strokeWidth=2;rounded=0;fontFamily=Verdana;entryX=0.5;entryY=0;entryDx=0;entryDy=0;" parent="1" source="2" target="WpWz7NRVjrMRIm7rbvet-185" edge="1">
          <mxGeometry x="-23" y="135.5" width="100" height="100" as="geometry">
            <mxPoint x="622.5" y="260.26" as="sourcePoint" />
            <mxPoint x="490.5" y="360.26" as="targetPoint" />
            <Array as="points">
              <mxPoint x="775.5" y="334.76" />
            </Array>
          </mxGeometry>
        </mxCell>
        <mxCell id="sPOSDjA2QxB-xksFo4Xl-126" value="" style="edgeStyle=elbowEdgeStyle;elbow=vertical;strokeWidth=2;rounded=0;fontFamily=Verdana;exitX=0.5;exitY=1;exitDx=0;exitDy=0;entryX=0.5;entryY=0;entryDx=0;entryDy=0;" parent="1" source="2" target="10" edge="1">
          <mxGeometry x="357" y="235.5" width="100" height="100" as="geometry">
            <mxPoint x="1507.5" y="300.26" as="sourcePoint" />
            <mxPoint x="1312.5" y="370.26" as="targetPoint" />
            <Array as="points">
              <mxPoint x="1275.5" y="334.76" />
            </Array>
          </mxGeometry>
        </mxCell>
        <mxCell id="jPdAf53yLR4_MpdE2c-u-98" style="edgeStyle=orthogonalEdgeStyle;rounded=0;orthogonalLoop=1;jettySize=auto;html=1;exitX=0.5;exitY=1;exitDx=0;exitDy=0;entryX=0.5;entryY=0;entryDx=0;entryDy=0;strokeWidth=2;" parent="1" source="WpWz7NRVjrMRIm7rbvet-214" target="WpWz7NRVjrMRIm7rbvet-217" edge="1">
          <mxGeometry relative="1" as="geometry" />
        </mxCell>
        <mxCell id="WpWz7NRVjrMRIm7rbvet-214" value="Click Button" style="rounded=0;fillColor=#e1d5e7;strokeColor=#9673a6;fontStyle=1;fontFamily=Verdana;fontSize=20;" parent="1" vertex="1">
          <mxGeometry x="804.75" y="932.3199999999999" width="172" height="80" as="geometry" />
        </mxCell>
        <mxCell id="WpWz7NRVjrMRIm7rbvet-217" value="Fetching Data" style="rounded=0;fillColor=#76608a;strokeColor=#432D57;fontStyle=1;fontFamily=Verdana;fontSize=20;fontColor=#ffffff;" parent="1" vertex="1">
          <mxGeometry x="793.88" y="1072.3200000000002" width="193.75" height="80" as="geometry" />
        </mxCell>
        <mxCell id="K48Jzxtpa2wTe1a66dB9-78" style="edgeStyle=orthogonalEdgeStyle;rounded=0;orthogonalLoop=1;jettySize=auto;html=1;exitX=0.5;exitY=1;exitDx=0;exitDy=0;entryX=0.5;entryY=0;entryDx=0;entryDy=0;strokeWidth=2;" parent="1" source="WpWz7NRVjrMRIm7rbvet-185" target="jPdAf53yLR4_MpdE2c-u-74" edge="1">
          <mxGeometry relative="1" as="geometry" />
        </mxCell>
        <mxCell id="K48Jzxtpa2wTe1a66dB9-79" style="edgeStyle=orthogonalEdgeStyle;rounded=0;orthogonalLoop=1;jettySize=auto;html=1;exitX=0.5;exitY=1;exitDx=0;exitDy=0;entryX=0.5;entryY=0;entryDx=0;entryDy=0;strokeWidth=2;" parent="1" source="WpWz7NRVjrMRIm7rbvet-185" target="K48Jzxtpa2wTe1a66dB9-72" edge="1">
          <mxGeometry relative="1" as="geometry" />
        </mxCell>
        <mxCell id="K48Jzxtpa2wTe1a66dB9-85" style="edgeStyle=orthogonalEdgeStyle;rounded=0;orthogonalLoop=1;jettySize=auto;html=1;exitX=0.5;exitY=1;exitDx=0;exitDy=0;entryX=0.5;entryY=0;entryDx=0;entryDy=0;strokeWidth=2;" parent="1" source="WpWz7NRVjrMRIm7rbvet-185" target="K48Jzxtpa2wTe1a66dB9-82" edge="1">
          <mxGeometry relative="1" as="geometry" />
        </mxCell>
        <mxCell id="WpWz7NRVjrMRIm7rbvet-185" value="Header" style="rounded=0;fillColor=#d5e8d4;strokeColor=#82b366;fontStyle=1;fontFamily=Verdana;fontSize=20;" parent="1" vertex="1">
          <mxGeometry x="652.25" y="369.39" width="190" height="91" as="geometry" />
        </mxCell>
        <mxCell id="qf_q3sLtRgpL2h3kug1x-97" value="locData" style="rounded=0;fontStyle=1;fontFamily=Verdana;fontSize=20;" parent="1" vertex="1">
          <mxGeometry x="1529.88" y="389.39" width="141.25" height="33" as="geometry" />
        </mxCell>
        <mxCell id="jPdAf53yLR4_MpdE2c-u-63" value="" style="rounded=0;fillColor=#666666;gradientColor=none;strokeColor=none;fontColor=#FFFFFF;fontStyle=1;fontFamily=Verdana;fontSize=20;" parent="1" vertex="1">
          <mxGeometry x="50" y="108.01" width="40" height="20" as="geometry" />
        </mxCell>
        <mxCell id="jPdAf53yLR4_MpdE2c-u-65" value="local state" style="rounded=0;fontStyle=1;fontFamily=Verdana;fontSize=20;fillColor=none;strokeColor=none;align=left;" parent="1" vertex="1">
          <mxGeometry x="109.5" y="101.51" width="128.29" height="26.5" as="geometry" />
        </mxCell>
        <mxCell id="jPdAf53yLR4_MpdE2c-u-67" value="" style="rounded=0;fontStyle=1;fontFamily=Verdana;fontSize=20;" parent="1" vertex="1">
          <mxGeometry x="50" y="148.26" width="40" height="20" as="geometry" />
        </mxCell>
        <mxCell id="jPdAf53yLR4_MpdE2c-u-68" value="prop" style="rounded=0;fontStyle=1;fontFamily=Verdana;fontSize=20;fillColor=none;strokeColor=none;align=left;" parent="1" vertex="1">
          <mxGeometry x="109.5" y="141.76" width="128.29" height="26.5" as="geometry" />
        </mxCell>
        <mxCell id="jPdAf53yLR4_MpdE2c-u-72" value="" style="rounded=0;fontStyle=1;fontFamily=Verdana;fontSize=20;fillColor=#d5e8d4;strokeColor=#82b366;" parent="1" vertex="1">
          <mxGeometry x="50" y="228.01" width="40" height="20" as="geometry" />
        </mxCell>
        <mxCell id="jPdAf53yLR4_MpdE2c-u-73" value="element" style="rounded=0;fontStyle=1;fontFamily=Verdana;fontSize=20;fillColor=none;strokeColor=none;align=left;" parent="1" vertex="1">
          <mxGeometry x="109.5" y="221.51" width="128.29" height="26.5" as="geometry" />
        </mxCell>
        <mxCell id="jPdAf53yLR4_MpdE2c-u-74" value="App Title" style="rounded=0;fillColor=#d5e8d4;strokeColor=#82b366;fontStyle=1;fontFamily=Verdana;fontSize=20;strokeWidth=1;" parent="1" vertex="1">
          <mxGeometry x="205.5" y="540.9499999999999" width="190" height="81" as="geometry" />
        </mxCell>
        <mxCell id="jPdAf53yLR4_MpdE2c-u-76" value="" style="rounded=0;fontStyle=1;fontFamily=Verdana;fontSize=20;fillColor=#dae8fc;strokeColor=#6c8ebf;" parent="1" vertex="1">
          <mxGeometry x="329" y="108.01" width="40" height="20" as="geometry" />
        </mxCell>
        <mxCell id="jPdAf53yLR4_MpdE2c-u-77" value="interactable element" style="rounded=0;fontStyle=1;fontFamily=Verdana;fontSize=20;fillColor=none;strokeColor=none;align=left;" parent="1" vertex="1">
          <mxGeometry x="388.5" y="101.51" width="241" height="26.5" as="geometry" />
        </mxCell>
        <mxCell id="jPdAf53yLR4_MpdE2c-u-97" style="edgeStyle=orthogonalEdgeStyle;rounded=0;orthogonalLoop=1;jettySize=auto;html=1;exitX=0.5;exitY=1;exitDx=0;exitDy=0;entryX=0.5;entryY=0;entryDx=0;entryDy=0;strokeWidth=2;" parent="1" source="jPdAf53yLR4_MpdE2c-u-87" target="WpWz7NRVjrMRIm7rbvet-214" edge="1">
          <mxGeometry relative="1" as="geometry" />
        </mxCell>
        <mxCell id="jPdAf53yLR4_MpdE2c-u-87" value="Submit Button" style="rounded=0;fillColor=#dae8fc;strokeColor=#6c8ebf;fontStyle=1;fontFamily=Verdana;fontSize=20;strokeWidth=1;" parent="1" vertex="1">
          <mxGeometry x="789.5" y="791.3199999999999" width="202.5" height="81" as="geometry" />
        </mxCell>
        <mxCell id="jPdAf53yLR4_MpdE2c-u-88" value="Input" style="rounded=0;fillColor=#dae8fc;strokeColor=#6c8ebf;fontStyle=1;fontFamily=Verdana;fontSize=20;strokeWidth=1;" parent="1" vertex="1">
          <mxGeometry x="511.5" y="791.3199999999999" width="190" height="81" as="geometry" />
        </mxCell>
        <mxCell id="jPdAf53yLR4_MpdE2c-u-91" value="" style="group" parent="1" vertex="1" connectable="0">
          <mxGeometry x="1008.75" y="70" width="318" height="207.75" as="geometry" />
        </mxCell>
        <mxCell id="2" value="App&#xa;&#xa;&#xa;&#xa;&#xa;&#xa;&#xa;" style="rounded=0;fillColor=#f8cecc;strokeColor=#b85450;fontStyle=1;fontFamily=Verdana;fontSize=20;" parent="jPdAf53yLR4_MpdE2c-u-91" vertex="1">
          <mxGeometry width="318" height="207.75" as="geometry" />
        </mxCell>
        <mxCell id="WpWz7NRVjrMRIm7rbvet-156" value="ipData" style="rounded=0;fillColor=#666666;gradientColor=none;strokeColor=none;fontColor=#FFFFFF;fontStyle=1;fontFamily=Verdana;fontSize=20;" parent="jPdAf53yLR4_MpdE2c-u-91" vertex="1">
          <mxGeometry x="85.11000000000001" y="60" width="147.79" height="33" as="geometry" />
        </mxCell>
        <mxCell id="jPdAf53yLR4_MpdE2c-u-61" value="locData" style="rounded=0;fillColor=#666666;gradientColor=none;strokeColor=none;fontColor=#FFFFFF;fontStyle=1;fontFamily=Verdana;fontSize=20;" parent="jPdAf53yLR4_MpdE2c-u-91" vertex="1">
          <mxGeometry x="85.10000000000002" y="106.94999999999999" width="147.79" height="33" as="geometry" />
        </mxCell>
        <mxCell id="jPdAf53yLR4_MpdE2c-u-62" value="errMsg" style="rounded=0;fillColor=#666666;gradientColor=none;strokeColor=none;fontColor=#FFFFFF;fontStyle=1;fontFamily=Verdana;fontSize=20;" parent="jPdAf53yLR4_MpdE2c-u-91" vertex="1">
          <mxGeometry x="85.11000000000001" y="156.95" width="147.79" height="33" as="geometry" />
        </mxCell>
        <mxCell id="jPdAf53yLR4_MpdE2c-u-93" value="Error Message" style="rounded=0;fillColor=#d5e8d4;strokeColor=#82b366;fontStyle=1;fontFamily=Verdana;fontSize=20;strokeWidth=1;" parent="1" vertex="1">
          <mxGeometry x="1039.5" y="791.3199999999999" width="190" height="81" as="geometry" />
        </mxCell>
        <mxCell id="K48Jzxtpa2wTe1a66dB9-92" style="edgeStyle=orthogonalEdgeStyle;rounded=0;orthogonalLoop=1;jettySize=auto;html=1;exitX=1;exitY=0.5;exitDx=0;exitDy=0;entryX=0;entryY=0.5;entryDx=0;entryDy=0;strokeWidth=2;" parent="1" source="jPdAf53yLR4_MpdE2c-u-100" target="jPdAf53yLR4_MpdE2c-u-62" edge="1">
          <mxGeometry relative="1" as="geometry" />
        </mxCell>
        <mxCell id="jPdAf53yLR4_MpdE2c-u-100" value="Error Occur" style="rounded=0;fillColor=#a20025;strokeColor=#6F0000;fontStyle=1;fontFamily=Verdana;fontSize=20;fontColor=#ffffff;" parent="1" vertex="1">
          <mxGeometry x="695.5" y="134.76" width="172" height="80" as="geometry" />
        </mxCell>
        <mxCell id="jPdAf53yLR4_MpdE2c-u-103" value="" style="rounded=0;fontStyle=1;fontFamily=Verdana;fontSize=20;fillColor=#e1d5e7;strokeColor=#9673a6;" parent="1" vertex="1">
          <mxGeometry x="329" y="148.26" width="40" height="20" as="geometry" />
        </mxCell>
        <mxCell id="jPdAf53yLR4_MpdE2c-u-104" value="event" style="rounded=0;fontStyle=1;fontFamily=Verdana;fontSize=20;fillColor=none;strokeColor=none;align=left;" parent="1" vertex="1">
          <mxGeometry x="388.5" y="141.76" width="80.5" height="26.5" as="geometry" />
        </mxCell>
        <mxCell id="jPdAf53yLR4_MpdE2c-u-105" value="" style="rounded=0;fontStyle=1;fontFamily=Verdana;fontSize=20;fillColor=#76608a;strokeColor=#432D57;fontColor=#ffffff;" parent="1" vertex="1">
          <mxGeometry x="329" y="188.51" width="40" height="20" as="geometry" />
        </mxCell>
        <mxCell id="jPdAf53yLR4_MpdE2c-u-106" value="async execution" style="rounded=0;fontStyle=1;fontFamily=Verdana;fontSize=20;fillColor=none;strokeColor=none;align=left;" parent="1" vertex="1">
          <mxGeometry x="388.5" y="182.01" width="190.5" height="26.5" as="geometry" />
        </mxCell>
        <mxCell id="jPdAf53yLR4_MpdE2c-u-107" value="" style="rounded=0;fontStyle=1;fontFamily=Verdana;fontSize=20;fillColor=#ffe6cc;strokeColor=#d79b00;" parent="1" vertex="1">
          <mxGeometry x="50" y="188.51" width="40" height="20" as="geometry" />
        </mxCell>
        <mxCell id="jPdAf53yLR4_MpdE2c-u-108" value="react component" style="rounded=0;fontStyle=1;fontFamily=Verdana;fontSize=20;fillColor=none;strokeColor=none;align=left;" parent="1" vertex="1">
          <mxGeometry x="109.5" y="182.01" width="201" height="26.5" as="geometry" />
        </mxCell>
        <mxCell id="jPdAf53yLR4_MpdE2c-u-109" value="" style="rounded=0;fontStyle=1;fontFamily=Verdana;fontSize=20;fillColor=#a20025;strokeColor=#6F0000;fontColor=#ffffff;" parent="1" vertex="1">
          <mxGeometry x="329" y="228.01" width="40" height="20" as="geometry" />
        </mxCell>
        <mxCell id="jPdAf53yLR4_MpdE2c-u-110" value="error event" style="rounded=0;fontStyle=1;fontFamily=Verdana;fontSize=20;fillColor=none;strokeColor=none;align=left;" parent="1" vertex="1">
          <mxGeometry x="388.5" y="221.51" width="190.5" height="26.5" as="geometry" />
        </mxCell>
        <mxCell id="jPdAf53yLR4_MpdE2c-u-114" value="Leaflet Map" style="rounded=0;fillColor=#dae8fc;strokeColor=#6c8ebf;fontStyle=1;fontFamily=Verdana;fontSize=20;strokeWidth=1;" parent="1" vertex="1">
          <mxGeometry x="1487.17" y="583.9499999999999" width="225.62" height="81" as="geometry" />
        </mxCell>
        <mxCell id="K48Jzxtpa2wTe1a66dB9-80" style="edgeStyle=orthogonalEdgeStyle;rounded=0;orthogonalLoop=1;jettySize=auto;html=1;exitX=0.5;exitY=1;exitDx=0;exitDy=0;entryX=0.5;entryY=0;entryDx=0;entryDy=0;strokeWidth=2;" parent="1" source="K48Jzxtpa2wTe1a66dB9-72" target="jPdAf53yLR4_MpdE2c-u-88" edge="1">
          <mxGeometry relative="1" as="geometry" />
        </mxCell>
        <mxCell id="K48Jzxtpa2wTe1a66dB9-81" style="edgeStyle=orthogonalEdgeStyle;rounded=0;orthogonalLoop=1;jettySize=auto;html=1;exitX=0.5;exitY=1;exitDx=0;exitDy=0;entryX=0.5;entryY=0;entryDx=0;entryDy=0;strokeWidth=2;" parent="1" source="K48Jzxtpa2wTe1a66dB9-72" target="jPdAf53yLR4_MpdE2c-u-87" edge="1">
          <mxGeometry relative="1" as="geometry" />
        </mxCell>
        <mxCell id="K48Jzxtpa2wTe1a66dB9-72" value="&#xa;&#xa;&#xa;&#xa;Searchbar" style="rounded=0;fillColor=#ffe6cc;strokeColor=#d79b00;fontStyle=1;fontFamily=Verdana;fontSize=20;" parent="1" vertex="1">
          <mxGeometry x="608.25" y="540.9499999999999" width="280" height="170" as="geometry" />
        </mxCell>
        <mxCell id="K48Jzxtpa2wTe1a66dB9-74" value="onSubmit" style="rounded=0;fontStyle=1;fontFamily=Verdana;fontSize=20;" parent="1" vertex="1">
          <mxGeometry x="649.5" y="607.9459404024767" width="197.5" height="33" as="geometry" />
        </mxCell>
        <mxCell id="K48Jzxtpa2wTe1a66dB9-75" value="input" style="rounded=0;fillColor=#666666;gradientColor=none;strokeColor=none;fontColor=#FFFFFF;fontStyle=1;fontFamily=Verdana;fontSize=20;" parent="1" vertex="1">
          <mxGeometry x="674.35" y="559.9499999999999" width="147.79" height="33" as="geometry" />
        </mxCell>
        <mxCell id="K48Jzxtpa2wTe1a66dB9-86" style="edgeStyle=orthogonalEdgeStyle;rounded=0;orthogonalLoop=1;jettySize=auto;html=1;exitX=0.5;exitY=1;exitDx=0;exitDy=0;entryX=0.5;entryY=0;entryDx=0;entryDy=0;strokeWidth=2;" parent="1" source="K48Jzxtpa2wTe1a66dB9-82" target="jPdAf53yLR4_MpdE2c-u-93" edge="1">
          <mxGeometry relative="1" as="geometry" />
        </mxCell>
        <mxCell id="K48Jzxtpa2wTe1a66dB9-88" style="edgeStyle=orthogonalEdgeStyle;rounded=0;orthogonalLoop=1;jettySize=auto;html=1;exitX=0.5;exitY=1;exitDx=0;exitDy=0;entryX=0.5;entryY=0;entryDx=0;entryDy=0;strokeWidth=2;" parent="1" source="K48Jzxtpa2wTe1a66dB9-82" target="K48Jzxtpa2wTe1a66dB9-87" edge="1">
          <mxGeometry relative="1" as="geometry" />
        </mxCell>
        <mxCell id="K48Jzxtpa2wTe1a66dB9-82" value="&#xa;&#xa;&#xa;&#xa;InfoList" style="rounded=0;fillColor=#ffe6cc;strokeColor=#d79b00;fontStyle=1;fontFamily=Verdana;fontSize=20;" parent="1" vertex="1">
          <mxGeometry x="1125.5" y="540.9499999999999" width="280" height="170" as="geometry" />
        </mxCell>
        <mxCell id="K48Jzxtpa2wTe1a66dB9-83" value="ipData" style="rounded=0;fontStyle=1;fontFamily=Verdana;fontSize=20;" parent="1" vertex="1">
          <mxGeometry x="1191.6100000000001" y="559.9499999999999" width="147.79" height="33" as="geometry" />
        </mxCell>
        <mxCell id="K48Jzxtpa2wTe1a66dB9-84" value="errMsg" style="rounded=0;fontStyle=1;fontFamily=Verdana;fontSize=20;" parent="1" vertex="1">
          <mxGeometry x="1191.6" y="608.39" width="147.79" height="33" as="geometry" />
        </mxCell>
        <mxCell id="K48Jzxtpa2wTe1a66dB9-91" style="edgeStyle=orthogonalEdgeStyle;rounded=0;orthogonalLoop=1;jettySize=auto;html=1;exitX=0.5;exitY=1;exitDx=0;exitDy=0;entryX=0.5;entryY=0;entryDx=0;entryDy=0;strokeWidth=2;" parent="1" source="K48Jzxtpa2wTe1a66dB9-87" target="K48Jzxtpa2wTe1a66dB9-89" edge="1">
          <mxGeometry relative="1" as="geometry" />
        </mxCell>
        <mxCell id="K48Jzxtpa2wTe1a66dB9-87" value="Container" style="rounded=0;fillColor=#d5e8d4;strokeColor=#82b366;fontStyle=1;fontFamily=Verdana;fontSize=20;strokeWidth=1;" parent="1" vertex="1">
          <mxGeometry x="1305.5" y="791.3199999999999" width="190" height="81" as="geometry" />
        </mxCell>
        <mxCell id="K48Jzxtpa2wTe1a66dB9-89" value="&#xa;&#xa;InfoContent" style="rounded=0;fillColor=#ffe6cc;strokeColor=#d79b00;fontStyle=1;fontFamily=Verdana;fontSize=20;" parent="1" vertex="1">
          <mxGeometry x="1305.5" y="924.76" width="190" height="120" as="geometry" />
        </mxCell>
        <mxCell id="K48Jzxtpa2wTe1a66dB9-90" value="ipData" style="rounded=0;fontStyle=1;fontFamily=Verdana;fontSize=20;" parent="1" vertex="1">
          <mxGeometry x="1326.6" y="947.6899999999999" width="147.79" height="33" as="geometry" />
        </mxCell>
      </root>
    </mxGraphModel>
  </diagram>
</mxfile>
